<svg width="24" height="25" viewBox="0 0 24 25" fill="none" xmlns="http://www.w3.org/2000/svg">
<path d="M12 22.6621C17.5228 22.6621 22 18.185 22 12.6621C22 7.13926 17.5228 2.66211 12 2.66211C6.47715 2.66211 2 7.13926 2 12.6621C2 18.185 6.47715 22.6621 12 22.6621Z" stroke="#F2F2F2" stroke-width="2" stroke-linecap="round" stroke-linejoin="round"/>
<path d="M9.08984 9.66219C9.32495 8.99386 9.789 8.4303 10.3998 8.07132C11.0106 7.71235 11.7287 7.58113 12.427 7.7009C13.1253 7.82068 13.7587 8.18371 14.2149 8.72572C14.6712 9.26772 14.9209 9.95371 14.9198 10.6622C14.9198 12.6622 11.9198 13.6622 11.9198 13.6622" stroke="#F2F2F2" stroke-width="2" stroke-linecap="round" stroke-linejoin="round"/>
<path d="M12 17.6621H12.01" stroke="#F2F2F2" stroke-width="2" stroke-linecap="round" stroke-linejoin="round"/>
</svg>
